<?xml version="1.0" encoding="UTF-8"?>
<svg version="1.1" xmlns="http://www.w3.org/2000/svg" width="225" height="225">
<path d="M0 0 C74.25 0 148.5 0 225 0 C225 74.25 225 148.5 225 225 C150.75 225 76.5 225 0 225 C0 150.75 0 76.5 0 0 Z " fill="#0180FA" transform="translate(0,0)"/>
<path d="M0 0 C3 1.5 3 1.5 5 4 C5.63433366 7.93286869 5.96061907 10.3577652 3.9375 13.81640625 C2.17224928 15.99670104 0.52521262 17.73739369 -2 19 C-4.33293334 19.04320247 -6.6670134 19.04022391 -9 19 C-10.32 19 -11.64 19 -13 19 C-15.62451617 21.62451617 -15.5832868 23.4877828 -16.125 27.125 C-16.29257813 28.22070312 -16.46015625 29.31640625 -16.6328125 30.4453125 C-16.75398438 31.28835937 -16.87515625 32.13140625 -17 33 C-15.68 33.99 -14.36 34.98 -13 36 C-12.67 35.67 -12.34 35.34 -12 35 C-4.87128713 34.76237624 -4.87128713 34.76237624 -1.25 35.75 C1.12805588 36.23955462 1.12805588 36.23955462 3.375 34.625 C5.26547887 31.57114951 5.03783238 31.00973112 4.4375 27.625 C3.74359488 23.50238726 3.74359488 23.50238726 4.9609375 21.1171875 C7.30041986 18.31792248 9.27800765 16.24107893 12.953125 15.7265625 C17.24672199 15.53670957 20.09582964 15.5657332 23.5 18.375 C27.10769235 22.16307697 27.1024643 23.87678476 27 29 C26.62151136 32.81814804 26.62151136 32.81814804 28.25 34.8125 C29.89817625 36.22832417 29.89817625 36.22832417 31.75 35.6875 C32.4925 35.460625 33.235 35.23375 34 35 C40.02108265 34.56210308 42.98055014 35.59750504 47.625 39.29296875 C49.48581678 41.60313049 49.33721687 43.06951327 49.25 46 C49.23453125 46.86625 49.2190625 47.7325 49.203125 48.625 C49 51 49 51 48 54 C49.36483958 56.20808542 49.36483958 56.20808542 52 58 C54.36692581 58.16698357 54.36692581 58.16698357 56.9375 58 C60.71116076 57.83302386 61.71688333 57.82666326 65.0625 59.875 C68.47509989 63.61785149 68.32843064 66.60769925 68.29296875 71.515625 C67.88537873 74.97198834 66.53723498 76.68663869 64 79 C60.89951072 80.55024464 58.42105782 80.28992015 55 80 C52.24670979 78.20437595 50.47372539 76.94745078 49 74 C49.04867909 70.71637379 49.19627925 67.4441066 49.35546875 64.1640625 C49.24749152 60.94990247 49.24749152 60.94990247 47.328125 58.5859375 C44.43274478 56.61358117 43.01284141 56.69372836 39.5625 57 C34.34112954 57.19493116 34.34112954 57.19493116 30.9375 55.25 C27.12755408 50.82554668 26.56962689 47.91763024 27 42 C27.66 41.01 28.32 40.02 29 39 C28.4225 38.71125 27.845 38.4225 27.25 38.125 C25.7746234 37.3873117 24.31493877 36.61717166 22.875 35.8125 C22.25625 35.544375 21.6375 35.27625 21 35 C20.01 35.495 20.01 35.495 19 36 C12.68245125 36.23398329 12.68245125 36.23398329 9.8125 35.25 C7.84160726 34.79329108 7.84160726 34.79329108 5.75 36.25 C3.34631265 40.02722299 3.88337968 42.98784866 4.046875 47.3671875 C3.98757762 50.69772374 3.18091628 52.49598502 1 55 C-3.23552856 57.82368571 -7.02477314 57.66653757 -12 57 C-14.93423195 55.20353146 -16.47205355 54.0558929 -18 51 C-18.07092842 48.7927077 -18.08415025 46.58332548 -18.0625 44.375 C-18.05347656 43.18648437 -18.04445313 41.99796875 -18.03515625 40.7734375 C-18.02355469 39.85820313 -18.01195313 38.94296875 -18 38 C-19.32 37.34 -20.64 36.68 -22 36 C-22.495 36.495 -22.495 36.495 -23 37 C-27.27424083 37.49318163 -29.33545657 37.4524551 -32.9375 35 C-35.2472973 31.64029484 -35.68169593 29.91074695 -35.43359375 25.93359375 C-34.75194607 22.89381354 -33.19767713 21.13303956 -31 19 C-27.75544693 17.37772347 -24.29698346 18.03985905 -20.7265625 18.16015625 C-17.9314356 17.99597258 -16.3717444 17.43316308 -14 16 C-14.02320312 15.39671875 -14.04640625 14.7934375 -14.0703125 14.171875 C-14.09738281 12.97304688 -14.09738281 12.97304688 -14.125 11.75 C-14.14820312 10.96109375 -14.17140625 10.1721875 -14.1953125 9.359375 C-13.90876126 5.89783604 -12.71532887 3.77035417 -10.375 1.25 C-6.93755675 -0.55918066 -3.75104915 -0.64622035 0 0 Z " fill="#F7FBFC" transform="translate(97,50)"/>
<path d="M0 0 C2.375 0.6875 2.375 0.6875 3.375 1.6875 C3.6101145 7.91803435 3.6101145 7.91803435 2.6875 10.9375 C2.16648532 12.75444548 2.16648532 12.75444548 3.375 14.375 C5.4623388 15.9540323 5.4623388 15.9540323 8.8125 16.125 C12.375 16.6875 12.375 16.6875 14.8125 18.125 C17.28693511 22.18307359 17.07634668 26.06905749 16.375 30.6875 C15 33.8125 15 33.8125 12.375 35.6875 C9.79040678 35.81630033 7.38133463 35.68827252 4.8125 35.375 C2.16404425 35.47948955 2.16404425 35.47948955 0.05859375 37.7734375 C-2.00215878 41.34030846 -1.96908068 43.24669318 -1.5625 47.3125 C-1.46839844 48.43914062 -1.37429687 49.56578125 -1.27734375 50.7265625 C-0.59833017 53.80855229 -0.24228338 54.97085224 2.375 56.6875 C4.32886269 57.01168149 4.32886269 57.01168149 6.375 56.8125 C9.2281845 56.65038724 10.56433542 56.75061181 13.375 57.6875 C15.0179372 56.53662119 15.0179372 56.53662119 16.375 54.6875 C16.40601082 52.0974956 16.40601082 52.0974956 15.875 49.3125 C15.2335002 44.02709951 15.2335002 44.02709951 16.625 40.6875 C17.2025 40.0275 17.78 39.3675 18.375 38.6875 C18.766875 38.089375 19.15875 37.49125 19.5625 36.875 C22.06622136 35.23463083 24.4282282 35.16177234 27.37109375 35.25390625 C30.70258102 35.97475437 32.30682154 38.11794494 34.375 40.6875 C34.705 41.0175 35.035 41.3475 35.375 41.6875 C35.99176323 46.4901645 35.80876712 49.87780137 33.5 54.1875 C31.375 56.6875 31.375 56.6875 29.375 57.6875 C26.83826405 57.63963706 24.31715962 57.49237903 21.78515625 57.33203125 C19.20020864 57.45204356 19.20020864 57.45204356 17.55859375 59.69921875 C17.16800781 60.35535156 16.77742188 61.01148438 16.375 61.6875 C16.705 62.3475 17.035 63.0075 17.375 63.6875 C17.75212577 68.68441647 17.46790612 71.67817725 14.375 75.6875 C10.85675489 78.03299674 9.51724306 78.26741403 5.375 77.6875 C2.5625 75.25 2.5625 75.25 0.375 72.6875 C-0.12 72.1925 -0.12 72.1925 -0.625 71.6875 C-0.61591389 68.64365387 -0.49176612 65.61149651 -0.3671875 62.5703125 C-0.39086337 59.71039302 -0.39086337 59.71039302 -1.890625 57.79296875 C-3.82786229 56.32339792 -3.82786229 56.32339792 -7.5 56.875 C-11.18982253 56.99754023 -11.51143273 56.77977341 -14.625 54.25 C-16.95163778 50.91040427 -17.35924217 47.82687803 -17.1015625 43.8125 C-16.27483681 40.12611662 -14.74636655 38.70338256 -11.625 36.6875 C-9.6171875 36.53125 -9.6171875 36.53125 -7.5 36.625 C-3.73596002 37.06358804 -3.73596002 37.06358804 -1.5625 35.25 C-0.33202149 31.88669208 -0.8893069 29.4227589 -1.43359375 25.93359375 C-1.69518507 22.86389972 -0.68672068 20.54087434 0.375 17.6875 C0.09859986 15.3999024 0.09859986 15.3999024 -0.625 13.6875 C-1.615 14.3475 -2.605 15.0075 -3.625 15.6875 C-8.16554054 15.14695946 -8.16554054 15.14695946 -9.625 13.6875 C-10.01939054 9.58583841 -10.07504791 7.3858502 -7.8125 3.875 C-3.51861702 -0.41888298 -3.51861702 -0.41888298 0 0 Z " fill="#F6FBFC" transform="translate(43.625,72.3125)"/>
<path d="M0 0 C4.56005984 1.86547902 6.71582225 4.68544202 9 9 C9.32857005 12.21998651 9.13715232 14.51996689 8.25 17.625 C7.71412626 20.12704887 7.71412626 20.12704887 9.61328125 22.1484375 C12.66601422 24.51667879 14.14163133 24.30635006 17.9375 24 C23.65198048 23.80510907 23.65198048 23.80510907 27.125 25.75 C30.2747533 29.52970396 31.01834896 30.84401546 30.9375 35.9375 C30.27126794 40.23991427 28.43842111 42.29838341 25 45 C21.50066227 46.16644591 18.67515027 46.06447632 15 46 C11.2019415 45.74952993 11.2019415 45.74952993 8.6875 46.9375 C6.76092237 48.81846663 6.76092237 48.81846663 7.11328125 51.02734375 C7.24089844 51.80207031 7.36851563 52.57679688 7.5 53.375 C8.1909928 57.66753105 8.1909928 57.66753105 6.3125 60.9375 C2.32101554 64.49747262 -0.45469004 65.50782413 -5.96484375 65.39453125 C-9.61727597 64.68647817 -11.43783808 62.62465368 -14 60 C-15.42662219 57.14675563 -15.31033868 55.16545451 -15 52 C-12.90741149 48.82503812 -11.17308714 47.11539143 -8 45 C-0.97560976 44.66550523 -0.97560976 44.66550523 2.1875 45.75 C4.30612021 46.25224093 4.30612021 46.25224093 6.75 44.0625 C7.86375 43.0415625 7.86375 43.0415625 9 42 C8.7525 41.2265625 8.7525 41.2265625 8.5 40.4375 C7.7009706 36.54223169 7.44952566 32.60555016 8.75 28.8125 C9.2449477 26.7736811 9.2449477 26.7736811 7.3125 24.6875 C6.549375 24.130625 5.78625 23.57375 5 23 C3.07089598 23.35299858 3.07089598 23.35299858 1 24 C-2.81642792 24.48572719 -6.43464298 24.87036448 -9.8828125 22.953125 C-12.81475459 20.54524985 -14.79336296 18.64128853 -15.2734375 14.828125 C-15.58137554 7.01123631 -15.58137554 7.01123631 -12.625 3.4375 C-8.59269617 -0.30678213 -5.37077234 -0.55880868 0 0 Z " fill="#F6FBFC" transform="translate(116,107)"/>
<path d="M0 0 C3.55023948 3.17255443 4.87327993 4.93193085 5.4375 9.6875 C5 13 5 13 3 16 C2.83286431 18.62531524 2.83286431 18.62531524 3 21 C4.670625 20.690625 4.670625 20.690625 6.375 20.375 C7.57125 20.25125 8.7675 20.1275 10 20 C10.66 20.66 11.32 21.32 12 22 C11.92007433 26.15613496 11.26235742 29.09387706 8.75 32.375 C6 35 6 35 3.375 36.0625 C1 36 1 36 -0.875 35 C-2.63694309 31.86765673 -1.73152067 29.41376312 -1 26 C-0.505 24.515 -0.505 24.515 0 23 C-0.66 22.01 -1.32 21.02 -2 20 C-3.99954746 19.95745644 -6.00041636 19.95919217 -8 20 C-8.99 19.34 -9.98 18.68 -11 18 C-11.28875 18.5775 -11.5775 19.155 -11.875 19.75 C-13 22 -13 22 -14.125 23.8125 C-15.3588138 26.89703451 -15.05788926 29.70031214 -15 33 C-15.20625 33.886875 -15.4125 34.77375 -15.625 35.6875 C-16.07838497 38.48337396 -15.48333947 39.6441079 -14 42 C-13.278125 41.649375 -12.55625 41.29875 -11.8125 40.9375 C-8.6877295 39.89590983 -7.11838004 40.10903428 -4 41 C-3.50117102 45.1901634 -3.80079985 46.71226646 -6.25 50.25 C-10.2173913 54.2173913 -10.2173913 54.2173913 -13 55 C-15.75 54.625 -15.75 54.625 -18 54 C-18.07013935 50.98400776 -18.07609357 48.31959301 -17.375 45.375 C-16.92732587 42.53973051 -17.49668552 41.38761711 -19 39 C-20.485 39.495 -20.485 39.495 -22 40 C-29.17205692 40.68305304 -29.17205692 40.68305304 -32.5 37.9375 C-34.40471074 34.20744147 -34.65405989 32.14237933 -34 28 C-32.20104326 25.03271711 -30.15299143 22.57649572 -27 21 C-25.56119684 21.05653451 -24.1234924 21.14380897 -22.6875 21.25 C-19.17257948 21.25566923 -18.08456847 21.05005073 -14.9375 19.1875 C-12.44097432 15.08031259 -12.8480237 12.29436254 -13.08203125 7.6015625 C-13 5 -13 5 -11.125 1.875 C-7.24925867 -1.54477176 -4.99552836 -1.27004958 0 0 Z " fill="#F4FAFC" transform="translate(178,130)"/>
<path d="M0 0 C4.21297326 0 5.73657121 0.75947806 8.875 3.625 C11.31853089 7.505902 11.60597869 9.49844404 11 14 C9 16 9 16 5.375 16.125 C4.26125 16.08375 3.1475 16.0425 2 16 C1.67 16.99 1.34 17.98 1 19 C1.33 19.66 1.66 20.32 2 21 C1.94287834 22.95927308 1.85528135 24.9177239 1.75 26.875 C1.57023595 31.83977107 1.57023595 31.83977107 4.5 35.75 C5.7375 36.36875 5.7375 36.36875 7 37 C7.33 36.67 7.66 36.34 8 36 C14.14962594 36.34164589 14.14962594 36.34164589 16.9375 38.5 C18.98789192 43.32445157 18.66704999 48.11656474 16.9375 53 C15 55 15 55 11.5625 56.0625 C8 56 8 56 5.625 54.625 C3.64276516 51.42292834 3.39818824 48.92976947 3.17578125 45.21875 C2.83252746 40.88612437 1.7672844 38.36886797 -1 35 C-2.19625 35.268125 -3.3925 35.53625 -4.625 35.8125 C-7.19136655 36.14981994 -8.52840484 36.25138335 -10.83203125 35.0234375 C-14.64670654 31.84918215 -15.89199275 30.09807366 -16.375 25.1875 C-16.35511166 21.54130475 -16.06608692 21.07964321 -13.5625 18.0625 C-12.2940625 17.0415625 -12.2940625 17.0415625 -11 16 C-10.67 15.67 -10.34 15.34 -10 15 C-4.47058824 14.76470588 -4.47058824 14.76470588 -2 16 C-0.99782936 12.41672247 -0.99782936 12.41672247 -2 9 C-2.1875 5.5 -2.1875 5.5 -2 2 C-1.34 1.34 -0.68 0.68 0 0 Z " fill="#F5FBFC" transform="translate(180,73)"/>
<path d="M0 0 C0.495 0.495 0.495 0.495 1 1 C0.9375 4.3125 0.9375 4.3125 0 8 C-4.14017675 11.7458742 -7.60118065 12.30015305 -13 13 C-16.38434909 14.6438267 -17.41404317 16.70522234 -18.9375 20 C-20.67706111 23.68218383 -22.06087086 25.49937938 -26 27 C-29.3125 27.1875 -29.3125 27.1875 -32 27 C-33.44430855 24.11138291 -33.37688506 22.20352299 -33 19 C-30.53856432 16.0728873 -28.17875822 14.11917214 -25 12 C-23 12 -21 12 -19 12 C-16.21433941 11.08742694 -16.21433941 11.08742694 -14 10 C-14.12375 9.278125 -14.2475 8.55625 -14.375 7.8125 C-14 5 -14 5 -11.5 2.1875 C-7.70566836 -0.70126323 -4.63560076 -0.47141703 0 0 Z " fill="#F4FAFB" transform="translate(83,41)"/>
<path d="M0 0 C0.66 0.33 1.32 0.66 2 1 C1.0409375 2.051875 1.0409375 2.051875 0.0625 3.125 C-2.16386102 6.22841233 -2.65080943 8.24620139 -3 12 C-3.33 12 -3.66 12 -4 12 C-4.49230769 4.61538462 -4.49230769 4.61538462 -2 1.5 C-1.34 1.005 -0.68 0.51 0 0 Z " fill="#1E87ED" transform="translate(85,67)"/>
<path d="M0 0 C0 0.66 0 1.32 0 2 C-1.63260714 3.37482707 -3.30225062 4.70647667 -5 6 C-5.66 6.66 -6.32 7.32 -7 8 C-7 6.68 -7 5.36 -7 4 C-2.77777778 0 -2.77777778 0 0 0 Z " fill="#1F88ED" transform="translate(130,151)"/>
<path d="M0 0 C2.64 0.33 5.28 0.66 8 1 C8 1.33 8 1.66 8 2 C0.375 4 0.375 4 -3 4 C-2.01 2.68 -1.02 1.36 0 0 Z " fill="#3E99E9" transform="translate(46,107)"/>
<path d="M0 0 C3.875 1.75 3.875 1.75 5 4 C3.68 4.33 2.36 4.66 1 5 C0.34 4.01 -0.32 3.02 -1 2 C-0.67 1.34 -0.34 0.68 0 0 Z " fill="#EBF7F9" transform="translate(143,104)"/>
</svg>
