<?xml version="1.0" encoding="UTF-8"?>
<svg version="1.1" xmlns="http://www.w3.org/2000/svg" width="800" height="800">
<path d="M0 0 C264 0 528 0 800 0 C800 264 800 528 800 800 C536 800 272 800 0 800 C0 536 0 272 0 0 Z " fill="#FEFEFE" transform="translate(0,0)"/>
<path d="M0 0 C264 0 528 0 800 0 C800 264 800 528 800 800 C536 800 272 800 0 800 C0 536 0 272 0 0 Z M20 20 C20 270.8 20 521.6 20 780 C270.8 780 521.6 780 780 780 C780 529.2 780 278.4 780 20 C529.2 20 278.4 20 20 20 Z " fill="#E47100" transform="translate(0,0)"/>
<path d="M0 0 C5.09269358 -1.01431241 10.01695097 -1.70117978 15 0 C19.82276615 3.58485775 23.09727886 8.86294993 26.44921875 13.77099609 C28.89334224 17.28403884 31.57746306 20.59726868 34.25 23.9375 C35.15232729 25.09144378 36.05348866 26.24630083 36.953125 27.40234375 C38.4072668 29.26273555 38.4072668 29.26273555 40 31 C40 22.42 40 13.84 40 5 C38.02 4.34 36.04 3.68 34 3 C34 2.01 34 1.02 34 0 C39.28 0 44.56 0 50 0 C50 0.99 50 1.98 50 3 C48.68 3.33 47.36 3.66 46 4 C45.67 17.53 45.34 31.06 45 45 C39.375 43.875 39.375 43.875 36.6875 40.4375 C36.17574219 39.79683594 35.66398437 39.15617187 35.13671875 38.49609375 C34.76160156 38.00238281 34.38648438 37.50867188 34 37 C33.34 37.66 32.68 38.32 32 39 C29.875 38.625 29.875 38.625 28 38 C28 37.01 28 36.02 28 35 C24.59076487 35.00032382 24.59076487 35.00032382 21 37 C19.35 41.29 17.7 45.58 16 50 C25.9 50 35.8 50 46 50 C46 50.99 46 51.98 46 53 C43.36 53.33 40.72 53.66 38 54 C37.7097813 60.13432502 38.56644735 64.7621978 40.625 70.515625 C40.89135254 71.29387634 41.15770508 72.07212769 41.43212891 72.8739624 C42.27662874 75.33677772 43.13711355 77.7935727 44 80.25 C44.86069511 82.72136951 45.71777228 85.19384921 46.56787109 87.66888428 C47.09538709 89.20264582 47.62930514 90.73422436 48.17041016 92.26324463 C49.37131089 95.73536599 50 98.28119205 50 102 C50.66 102 51.32 102 52 102 C52.15782959 101.44344727 52.31565918 100.88689453 52.47827148 100.31347656 C54.70052002 92.67983362 57.35977423 85.22478743 60.0625 77.75 C60.9497651 75.28665505 61.83650278 72.82312006 62.72265625 70.359375 C63.30672241 68.74240723 63.30672241 68.74240723 63.90258789 67.09277344 C64.26473389 66.0721582 64.62687988 65.05154297 65 64 C65.37697021 62.96133789 65.75394043 61.92267578 66.14233398 60.85253906 C67.19195624 57.85801423 67.19195624 57.85801423 67 54 C65.35 53.67 63.7 53.34 62 53 C62 52.01 62 51.02 62 50 C69.26 50 76.52 50 84 50 C84 50.99 84 51.98 84 53 C82.4221875 53.2475 82.4221875 53.2475 80.8125 53.5 C76.60163996 54.73143327 75.44647747 56.88467877 73.29663086 60.54248047 C70.85444863 65.17117681 68.86692701 69.97678942 66.875 74.8125 C66.40924561 75.92802246 65.94349121 77.04354492 65.46362305 78.19287109 C63.96564283 81.79113031 62.47982383 85.39424868 61 89 C60.74079773 89.6313385 60.48159546 90.262677 60.21453857 90.91314697 C56.78714438 99.26628291 53.38411671 107.62923249 50 116 C49.01 116 48.02 116 47 116 C46.57702637 114.78642822 46.15405273 113.57285645 45.71826172 112.32250977 C44.11947322 107.73564248 42.52024565 103.14892836 40.92089844 98.56225586 C40.23425885 96.59289531 39.54773176 94.62349553 38.86132812 92.65405273 C36.57754678 86.10153683 34.2909337 79.55001888 32 73 C31.69823853 72.13703308 31.39647705 71.27406616 31.08557129 70.38494873 C30.24877955 67.99433869 29.40997548 65.6044466 28.5703125 63.21484375 C28.322883 62.50775772 28.07545349 61.80067169 27.82052612 61.07215881 C26.55821132 57.47494903 26.55821132 57.47494903 25 54 C22.41394668 53.5316735 22.41394668 53.5316735 19.4375 53.375 C18.42558594 53.30023438 17.41367187 53.22546875 16.37109375 53.1484375 C15.58863281 53.09945312 14.80617188 53.05046875 14 53 C13.90525391 53.87785156 13.90525391 53.87785156 13.80859375 54.7734375 C12.88545801 61.24510491 11.02849289 67.11482537 8.6875 73.1875 C8.40382568 73.93499512 8.12015137 74.68249023 7.82788086 75.45263672 C5.06087106 82.42897652 1.69709302 90.07975043 -5 94 C-8.1875 94.375 -8.1875 94.375 -11 94 C-11.66 93.34 -12.32 92.68 -13 92 C-12.625 89.875 -12.625 89.875 -12 88 C-10.35 88.33 -8.7 88.66 -7 89 C-7 89.66 -7 90.32 -7 91 C-2.60320609 88.83452413 -1.17952006 87.09636471 0.4375 82.5 C0.84355469 81.35789062 1.24960938 80.21578125 1.66796875 79.0390625 C4.01090332 72.01560388 6.24068703 64.9556886 8.41503906 57.87841797 C8.9234136 56.24593312 9.45931049 54.62206853 10 53 C8.02 53 6.04 53 4 53 C4.33 52.01 4.66 51.02 5 50 C6.98 50 8.96 50 11 50 C11.33 48.68 11.66 47.36 12 46 C8.37 45.67 4.74 45.34 1 45 C1 43.68 1 42.36 1 41 C2.65 41 4.3 41 6 41 C6.0493651 36.05209823 6.08570269 31.10433917 6.10986328 26.15625 C6.11993317 24.47230534 6.13358988 22.78837821 6.15087891 21.10449219 C6.17508426 18.68680499 6.18647296 16.26934857 6.1953125 13.8515625 C6.20563507 13.0963028 6.21595764 12.34104309 6.22659302 11.56289673 C6.22699318 9.7070602 6.12222716 7.8518072 6 6 C3.8614515 3.8614515 2.86724686 3.57344937 0 3 C0 2.01 0 1.02 0 0 Z " fill="#2B3552" transform="translate(254,413)"/>
<path d="M0 0 C7.44435747 5.93814831 14.43057943 12.07644858 18 21 C-15.99 21 -49.98 21 -85 21 C-79.92217917 8.30544792 -69.14252342 -0.58618307 -56.75 -5.9375 C-54.84260356 -6.65031568 -52.92670479 -7.34115555 -51 -8 C-49.7625 -8.433125 -48.525 -8.86625 -47.25 -9.3125 C-31.44022439 -12.67697704 -13.2069646 -9.22650386 0 0 Z " fill="#E57527" transform="translate(434,282)"/>
<path d="M0 0 C6.27 0 12.54 0 19 0 C19 0.99 19 1.98 19 3 C17.35 3.33 15.7 3.66 14 4 C15.3106886 10.331829 16.98076042 16.38140777 19.0625 22.5 C19.33126953 23.30953125 19.60003906 24.1190625 19.87695312 24.953125 C20.91323228 28.77043348 20.91323228 28.77043348 23 32 C26.63 22.43 30.26 12.86 34 3 C32.68 3 31.36 3 30 3 C30 2.01 30 1.02 30 0 C46.5 0 63 0 80 0 C83 9 83 9 83 12 C79.47808373 11.73911731 78.78724732 10.75685408 76.375 8 C75.199375 6.515 75.199375 6.515 74 5 C71.16730334 3.58365167 68.52533562 3.6536995 65.375 3.4375 C63.27125 3.293125 61.1675 3.14875 59 3 C59 8.61 59 14.22 59 20 C62.96 19.505 62.96 19.505 67 19 C68.84434349 16.53884453 68.84434349 16.53884453 70 14 C70.99 14 71.98 14 73 14 C73 18.62 73 23.24 73 28 C72.01 28 71.02 28 70 28 C69.505 26.02 69.505 26.02 69 24 C65.7 23.67 62.4 23.34 59 23 C59.1136515 25.62594784 59.24039054 28.25011547 59.375 30.875 C59.4059375 31.62136719 59.436875 32.36773437 59.46875 33.13671875 C59.55643831 37.53473188 59.55643831 37.53473188 62 41 C66.77636331 41.59223828 71.42590353 41.60284546 75.9375 39.875 C78.51117381 37.53529654 80.21618905 34.97301824 82 32 C83.98 32.495 83.98 32.495 86 33 C84.68 36.96 83.36 40.92 82 45 C69.79 45 57.58 45 45 45 C45 43.68 45 42.36 45 41 C47.31 41 49.62 41 52 41 C51.88205478 35.89118974 51.75782953 30.78258636 51.62768555 25.67407227 C51.58427427 23.93485712 51.54260388 22.19559765 51.50268555 20.45629883 C51.44513232 17.96161512 51.3813958 15.4671559 51.31640625 12.97265625 C51.29969376 12.19036148 51.28298126 11.40806671 51.26576233 10.60206604 C51.49351269 7.00128219 51.49351269 7.00128219 50 4 C48.48071962 3.92820036 46.95832518 3.91607993 45.4375 3.9375 C44.61121094 3.94652344 43.78492188 3.95554687 42.93359375 3.96484375 C41.97646484 3.98224609 41.97646484 3.98224609 41 4 C33.81180921 17.63490631 27.89174715 31.765956 22 46 C21.01 46 20.02 46 19 46 C18.764021 45.36723145 18.52804199 44.73446289 18.28491211 44.08251953 C15.93474381 37.78541241 13.57168941 31.49327086 11.20166016 25.20361328 C10.10658901 22.28416517 9.02596122 19.3598374 7.94921875 16.43359375 C7.34164403 14.80970935 6.73360245 13.18599951 6.125 11.5625 C5.85163818 10.80662598 5.57827637 10.05075195 5.29663086 9.27197266 C4.61709086 7.47963596 3.81883667 5.73313357 3 4 C2.01 3.67 1.02 3.34 0 3 C0 2.01 0 1.02 0 0 Z " fill="#283350" transform="translate(332,413)"/>
<path d="M0 0 C0.40839111 1.1960083 0.81678223 2.3920166 1.23754883 3.62426758 C2.75508356 8.06092683 4.28411454 12.49355131 5.81665039 16.92504883 C6.47832454 18.84356322 7.1368762 20.76315748 7.79223633 22.68383789 C8.73480438 25.44447058 9.68853487 28.20102448 10.64453125 30.95703125 C10.9352803 31.81649857 11.22602936 32.67596588 11.52558899 33.56147766 C11.94568489 34.76238289 11.94568489 34.76238289 12.37426758 35.98754883 C12.61631424 36.6914827 12.8583609 37.39541656 13.10774231 38.12068176 C14.11749327 40.24747025 15.20442025 41.48855752 17 43 C19.10332891 43.71447643 19.10332891 43.71447643 21 44 C21 44.99 21 45.98 21 47 C14.73 47 8.46 47 2 47 C2 46.01 2 45.02 2 44 C2.99 44 3.98 44 5 44 C4.01 39.38 3.02 34.76 2 30 C-3.61 30 -9.22 30 -15 30 C-15.495 31.588125 -15.99 33.17625 -16.5 34.8125 C-16.7784375 35.70582031 -17.056875 36.59914063 -17.34375 37.51953125 C-18.12788351 40.05573395 -18.12788351 40.05573395 -18 43 C-16.68 43.33 -15.36 43.66 -14 44 C-14 44.99 -14 45.98 -14 47 C-25.55 47 -37.1 47 -49 47 C-49 46.01 -49 45.02 -49 44 C-46.03 43.505 -46.03 43.505 -43 43 C-43 30.79 -43 18.58 -43 6 C-45.97 5.505 -45.97 5.505 -49 5 C-49 4.01 -49 3.02 -49 2 C-42.07 2 -35.14 2 -28 2 C-28 2.99 -28 3.98 -28 5 C-29.65 5.33 -31.3 5.66 -33 6 C-33.0246826 10.94791294 -33.04285166 15.8957902 -33.05493164 20.84375 C-33.05996653 22.52767562 -33.06679481 24.21159686 -33.07543945 25.89550781 C-33.08754196 28.31316203 -33.09323668 30.73075856 -33.09765625 33.1484375 C-33.10281754 33.9036972 -33.10797882 34.65895691 -33.11329651 35.43710327 C-33.19320188 39.34648109 -33.19320188 39.34648109 -32 43 C-28.61963977 43.02476295 -28.61963977 43.02476295 -25 42 C-23.32622268 39.68536289 -22.37586899 37.9846524 -21.32421875 35.40234375 C-21.0281221 34.73465469 -20.73202545 34.06696564 -20.42695618 33.37904358 C-19.48780617 31.24212532 -18.58837797 29.0907887 -17.6875 26.9375 C-17.06421702 25.51523593 -16.43858851 24.09399729 -15.81054688 22.67382812 C-15.20884556 21.29257607 -14.60917118 19.91043894 -14.01171875 18.52734375 C-13.73776779 17.89368393 -13.46381683 17.26002411 -13.18156433 16.60716248 C-11.80890876 13.3197078 -10.75859115 10.12299058 -9.99536133 6.65454102 C-9 3 -9 3 -6.0625 1 C-3 0 -3 0 0 0 Z " fill="#2E3854" transform="translate(567,470)"/>
<path d="M0 0 C19.8 0 39.6 0 60 0 C60 0.99 60 1.98 60 3 C58.68 3 57.36 3 56 3 C57.07811106 4.89880796 58.16273319 6.79391978 59.25 8.6875 C59.85328125 9.74324219 60.4565625 10.79898437 61.078125 11.88671875 C62.8727487 14.79386323 64.80728117 17.38523131 67 20 C68.48321908 17.73172355 69.96167699 15.46058097 71.4375 13.1875 C71.85837891 12.54490234 72.27925781 11.90230469 72.71289062 11.24023438 C74.47722704 8.51609896 75.9691739 6.09247829 77 3 C75.68 3 74.36 3 73 3 C73 2.01 73 1.02 73 0 C78.28 0 83.56 0 89 0 C89 0.99 89 1.98 89 3 C88.12859375 3.17660156 87.2571875 3.35320312 86.359375 3.53515625 C81.79491191 5.52547446 79.99165192 8.40096815 77.25 12.4375 C76.52876953 13.4594043 76.52876953 13.4594043 75.79296875 14.50195312 C71.34628106 20.3347634 71.34628106 20.3347634 69.5859375 27.23046875 C69.54726563 28.03291016 69.50859375 28.83535156 69.46875 29.66210938 C69.4378125 30.49548828 69.406875 31.32886719 69.375 32.1875 C69.33632813 33.03248047 69.29765625 33.87746094 69.2578125 34.74804688 C69.16363721 36.83167524 69.08073325 38.91580753 69 41 C70.65 41 72.3 41 74 41 C74 42.32 74 43.64 74 45 C67.73 45 61.46 45 55 45 C55 43.68 55 42.36 55 41 C57.475 40.505 57.475 40.505 60 40 C61.59133048 30.90085392 60.63886435 25.03211805 55.5456543 17.29614258 C50.0979473 9.36658473 50.0979473 9.36658473 43 3 C43.495 7.455 43.495 7.455 44 12 C43.01 12 42.02 12 41 12 C37 6.74285714 37 6.74285714 37 4 C33.04 4 29.08 4 25 4 C25 16.21 25 28.42 25 41 C26.98 41 28.96 41 31 41 C31.495 42.98 31.495 42.98 32 45 C24.74 45 17.48 45 10 45 C10 43.68 10 42.36 10 41 C12.97 40.505 12.97 40.505 16 40 C16.33 27.79 16.66 15.58 17 3 C7.67870755 3.02379073 7.67870755 3.02379073 4 6.375 C2.60565237 8.20508127 1.27622072 10.08566893 0 12 C-0.99 12 -1.98 12 -3 12 C-2.69106068 10.3743193 -2.3777305 8.74947252 -2.0625 7.125 C-1.88847656 6.22007812 -1.71445312 5.31515625 -1.53515625 4.3828125 C-1 2 -1 2 0 0 Z " fill="#2A3451" transform="translate(521,413)"/>
<path d="M0 0 C8.91 0 17.82 0 27 0 C27 1.32 27 2.64 27 4 C24.94921875 4.22786458 22.8984375 4.45572917 20.84765625 4.68359375 C18.98859771 4.81886614 18.98859771 4.81886614 18 6 C17.86130557 9.0700251 17.78673072 12.11581839 17.76171875 15.1875 C17.753647 16.11916992 17.74557526 17.05083984 17.73725891 18.01074219 C17.72339322 19.99135465 17.71268225 21.97199127 17.70483398 23.95263672 C17.68772875 26.95978508 17.64387872 29.96580312 17.59960938 32.97265625 C17.5894732 34.89842942 17.58096 36.82421195 17.57421875 38.75 C17.55671066 39.64098389 17.53920258 40.53196777 17.52116394 41.44995117 C17.54484029 48.38545008 18.94791395 54.94791395 24 60 C29.33396283 62.66698142 35.16850416 62.46550402 41 62 C45.74424762 60.36107809 48.24659664 58.181094 51 54 C51.91267639 51.12724908 52.12628918 48.52721234 52.12939453 45.52270508 C52.13412277 44.20663017 52.13412277 44.20663017 52.13894653 42.8639679 C52.1369223 41.9253038 52.13489807 40.98663971 52.1328125 40.01953125 C52.13376923 39.05093674 52.13472595 38.08234222 52.13571167 37.08439636 C52.13639132 35.04104548 52.13455202 32.99769242 52.13037109 30.9543457 C52.12500242 27.8139161 52.13033228 24.67362839 52.13671875 21.53320312 C52.13605827 19.54947885 52.13477774 17.56575466 52.1328125 15.58203125 C52.13483673 14.63729446 52.13686096 13.69255768 52.13894653 12.7191925 C52.13579437 11.85126572 52.13264221 10.98333893 52.12939453 10.08911133 C52.12859894 9.32174149 52.12780334 8.55437164 52.12698364 7.76374817 C52.19147182 5.97330399 52.19147182 5.97330399 51 5 C48.67182036 4.63239269 46.3381615 4.29758419 44 4 C44 2.68 44 1.36 44 0 C51.59 0 59.18 0 67 0 C67 1.32 67 2.64 67 4 C64.69 4.33 62.38 4.66 60 5 C59.98018066 6.13953125 59.96036133 7.2790625 59.93994141 8.453125 C59.86345511 12.71001028 59.77480639 16.96657277 59.68261719 21.22314453 C59.64450427 23.05999342 59.60962161 24.89691246 59.578125 26.73388672 C59.53208774 29.38534494 59.47416016 32.03632756 59.4140625 34.6875 C59.39673569 35.90518066 59.39673569 35.90518066 59.37905884 37.14746094 C59.15720792 45.8586797 57.5579152 53.97393806 51.625 60.6875 C44.49342289 66.97007983 37.86325318 67.41577153 28.58984375 67.34765625 C22.11578463 66.7206799 17.4053018 64.09692977 12.5625 59.875 C6.682401 49.05561785 7.45531008 36.76642321 7.3125 24.8125 C7.27927138 22.88734733 7.24477675 20.96221608 7.20898438 19.03710938 C7.12471825 14.3581922 7.05761218 9.67931816 7 5 C4.69 4.67 2.38 4.34 0 4 C0 2.68 0 1.36 0 0 Z " fill="#2E3955" transform="translate(190,398)"/>
<path d="M0 0 C4.18736668 -0.08760181 8.37449531 -0.14059435 12.5625 -0.1875 C13.74392578 -0.21263672 14.92535156 -0.23777344 16.14257812 -0.26367188 C22.52799492 -0.31733084 27.43569817 -0.27992826 33 3 C36.01030324 6.31133357 36.98228945 8.00820906 37.0625 12.5 C35.46207303 17.77199471 32.740404 20.83973067 28.1875 23.875 C27.1046875 24.431875 27.1046875 24.431875 26 25 C26.42410156 25.4846875 26.84820312 25.969375 27.28515625 26.46875 C27.87167969 27.1390625 28.45820313 27.809375 29.0625 28.5 C29.69929688 29.22316406 30.33609375 29.94632812 30.9921875 30.69140625 C32.30772636 32.20402 33.60546847 33.73234049 34.8828125 35.27734375 C35.47835937 35.99019531 36.07390625 36.70304687 36.6875 37.4375 C37.22761719 38.09621094 37.76773438 38.75492187 38.32421875 39.43359375 C40.20589895 41.19246032 41.48456933 41.61090288 44 42 C44 42.99 44 43.98 44 45 C39.5533047 45.53439513 35.4280245 45.76618562 31 45 C28.04236174 42.48201067 26.63093531 39.48255824 25 36 C24.21409715 34.50653189 23.40297725 33.02595081 22.5625 31.5625 C22.23378906 30.92441406 21.90507812 30.28632813 21.56640625 29.62890625 C19.52112496 27.22888817 19.52112496 27.22888817 13 26 C13.33 30.95 13.66 35.9 14 41 C15.65 41.33 17.3 41.66 19 42 C19 42.99 19 43.98 19 45 C12.4 45 5.8 45 -1 45 C-1 44.01 -1 43.02 -1 42 C1.475 41.505 1.475 41.505 4 41 C4 29.12 4 17.24 4 5 C2.68 4.34 1.36 3.68 0 3 C0 2.01 0 1.02 0 0 Z " fill="#27324F" transform="translate(356,472)"/>
<path d="M0 0 C4.54154478 -0.08735463 9.08287232 -0.14051247 13.625 -0.1875 C15.55279297 -0.22520508 15.55279297 -0.22520508 17.51953125 -0.26367188 C19.38544922 -0.27817383 19.38544922 -0.27817383 21.2890625 -0.29296875 C23.00150146 -0.31653442 23.00150146 -0.31653442 24.74853516 -0.34057617 C29.22042628 0.12783411 32.5370542 1.68334878 35.875 4.6875 C37.54520105 8.12069105 37.63332876 11.30676823 37 15 C34.5777773 19.93760781 32.05346301 21.93267422 27 24 C30.08366523 28.24709937 33.25512659 32.4125756 36.625 36.4375 C37.17414063 37.09621094 37.72328125 37.75492187 38.2890625 38.43359375 C40.19165742 40.17546719 41.48022619 40.60938004 44 41 C44 42.32 44 43.64 44 45 C39.84969823 45.61334509 36.12912694 45.83824382 32 45 C28.80440293 42.14801552 26.9727208 38.76901941 25 35 C22.81310242 30.78826079 22.81310242 30.78826079 20 27 C16.33054374 25.86521513 16.33054374 25.86521513 13 26 C13.33 30.62 13.66 35.24 14 40 C15.65 40.33 17.3 40.66 19 41 C19 42.32 19 43.64 19 45 C12.73 45 6.46 45 0 45 C0 43.68 0 42.36 0 41 C2.475 40.505 2.475 40.505 5 40 C5 28.45 5 16.9 5 5 C2.525 4.01 2.525 4.01 0 3 C0 2.01 0 1.02 0 0 Z " fill="#283350" transform="translate(418,413)"/>
<path d="M0 0 C7.59 0 15.18 0 23 0 C23 16.17 23 32.34 23 49 C15.41 49 7.82 49 0 49 C0 39.43 0 29.86 0 20 C1.98 20.99 1.98 20.99 4 22 C4.66 21.34 5.32 20.68 6 20 C4.02 19.67 2.04 19.34 0 19 C0 15.37 0 11.74 0 8 C1.32 8 2.64 8 4 8 C4.33 6.68 4.66 5.36 5 4 C3.35 4 1.7 4 0 4 C0 2.68 0 1.36 0 0 Z " fill="#E67628" transform="translate(341,328)"/>
<path d="M0 0 C7.59 0 15.18 0 23 0 C22.67 1.32 22.34 2.64 22 4 C20.68 4 19.36 4 18 4 C18.33 5.32 18.66 6.64 19 8 C20.32 8.33 21.64 8.66 23 9 C23 12.3 23 15.6 23 19 C21.02 19.33 19.04 19.66 17 20 C17.99 20.66 18.98 21.32 20 22 C20.99 21.34 21.98 20.68 23 20 C23 29.57 23 39.14 23 49 C16.73 49 10.46 49 4 49 C5.485 48.505 5.485 48.505 7 48 C7.33 47.01 7.66 46.02 8 45 C6.02 44.67 4.04 44.34 2 44 C2.33 45.65 2.66 47.3 3 49 C2.01 49 1.02 49 0 49 C0 32.83 0 16.66 0 0 Z " fill="#E57425" transform="translate(437,328)"/>
<path d="M0 0 C11.22456858 -1.91718909 11.22456858 -1.91718909 15.61376953 1.11474609 C18.77644606 4.15878323 21.30140395 7.69352764 23.79785156 11.29003906 C25.49756503 13.70774685 27.37215793 15.96924929 29.25 18.25 C32.87227468 22.80276726 36.43127385 27.40523396 40 32 C40.0582462 28.27089934 40.09367917 24.54191636 40.125 20.8125 C40.14175781 19.75740234 40.15851563 18.70230469 40.17578125 17.61523438 C40.18222656 16.59365234 40.18867188 15.57207031 40.1953125 14.51953125 C40.20578613 13.58214111 40.21625977 12.64475098 40.22705078 11.67895508 C39.97835835 8.74465184 39.33162615 6.62118568 38 4 C35.95894361 3.11306697 35.95894361 3.11306697 34 3 C34 2.01 34 1.02 34 0 C39.28 0 44.56 0 50 0 C50 0.99 50 1.98 50 3 C48.68 3.33 47.36 3.66 46 4 C45.67 17.53 45.34 31.06 45 45 C44.01 45.33 43.02 45.66 42 46 C38.14775336 42.23272939 34.53272547 38.31757762 31 34.25 C30.44546143 33.6118335 29.89092285 32.97366699 29.31958008 32.31616211 C22.87160956 24.80817677 16.92503192 16.92266952 11 9 C10.97522627 13.05679377 10.95710507 17.11355806 10.94506836 21.17041016 C10.94004882 22.54964973 10.93323181 23.92888402 10.92456055 25.30810547 C10.9123908 27.29392183 10.90728367 29.27977749 10.90234375 31.265625 C10.89710693 32.45961914 10.89187012 33.65361328 10.88647461 34.88378906 C10.98058054 37.46694617 11.23373845 39.55008419 12 42 C13.32 42 14.64 42 16 42 C16 42.99 16 43.98 16 45 C11.05 45 6.1 45 1 45 C1 44.01 1 43.02 1 42 C2.98 41.505 2.98 41.505 5 41 C5 29.12 5 17.24 5 5 C2.525 4.01 2.525 4.01 0 3 C0 2.01 0 1.02 0 0 Z " fill="#2F3955" transform="translate(465,472)"/>
<path d="M0 0 C20.46 0 40.92 0 62 0 C62 4.29 62 8.58 62 13 C51.44 13 40.88 13 30 13 C29.505 11.515 29.505 11.515 29 10 C28.34 10.33 27.68 10.66 27 11 C27 11.66 27 12.32 27 13 C16.77 13 6.54 13 -4 13 C-4 9.04 -4 5.08 -4 1 C-3.01 1 -2.02 1 -1 1 C-1.33 2.65 -1.66 4.3 -2 6 C-1.01 5.67 -0.02 5.34 1 5 C0.67 3.35 0.34 1.7 0 0 Z " fill="#E6782C" transform="translate(372,380)"/>
<path d="M0 0 C1.22589844 -0.01417969 2.45179688 -0.02835937 3.71484375 -0.04296875 C6.96205535 0.18058491 8.26870987 0.75956282 11.0625 2.1875 C13.0425 2.1875 15.0225 2.1875 17.0625 2.1875 C17.5575 8.6225 17.5575 8.6225 18.0625 15.1875 C16.7425 15.1875 15.4225 15.1875 14.0625 15.1875 C12.67808 13.22251678 11.35046166 11.21701535 10.0625 9.1875 C6.64772674 6.17924736 4.4246324 4.34775087 -0.125 3.8125 C-4.99184387 4.29120595 -7.53557817 5.73505458 -10.9375 9.1875 C-14.73702799 14.12688639 -15.62996497 19.22518534 -15.390625 25.37109375 C-14.42055426 31.40058517 -11.61697984 36.17212419 -7.75 40.8125 C-2.34241394 43.45620874 3.37141401 42.6102715 9.0625 41.1875 C9.0625 37.8875 9.0625 34.5875 9.0625 31.1875 C6.7525 30.8575 4.4425 30.5275 2.0625 30.1875 C2.0625 29.1975 2.0625 28.2075 2.0625 27.1875 C8.6625 27.1875 15.2625 27.1875 22.0625 27.1875 C22.0625 28.1775 22.0625 29.1675 22.0625 30.1875 C20.7425 30.5175 19.4225 30.8475 18.0625 31.1875 C17.7325 35.1475 17.4025 39.1075 17.0625 43.1875 C7.64267654 47.68652016 -1.29843633 49.12528001 -11.375 45.625 C-16.08182146 43.47440353 -19.1359909 40.50333835 -21.9375 36.1875 C-22.31003906 35.62546875 -22.68257813 35.0634375 -23.06640625 34.484375 C-25.44574935 28.2105914 -25.05741945 18.92237699 -23.1328125 12.50390625 C-18.29815599 3.9515656 -9.40835224 0.04936176 0 0 Z " fill="#2A3451" transform="translate(419.9375,470.8125)"/>
<path d="M0 0 C17.49 0 34.98 0 53 0 C49.77222336 3.22777664 47.42566968 5.1409024 43.61328125 7.41796875 C42.59298828 8.03220703 41.57269531 8.64644531 40.52148438 9.27929688 C39.46251953 9.90900391 38.40355469 10.53871094 37.3125 11.1875 C35.2037612 12.45071199 33.09565263 13.71497687 30.98828125 14.98046875 C30.05540283 15.53629639 29.12252441 16.09212402 28.16137695 16.66479492 C26.09887985 17.82447074 26.09887985 17.82447074 25 19 C23.14630389 19.08737645 21.28932459 19.10698153 19.43359375 19.09765625 C18.30888672 19.09443359 17.18417969 19.09121094 16.02539062 19.08789062 C14.84138672 19.07951172 13.65738281 19.07113281 12.4375 19.0625 C11.24962891 19.05798828 10.06175781 19.05347656 8.83789062 19.04882812 C5.89190588 19.03699686 2.94594684 19.01906076 0 19 C0 12.73 0 6.46 0 0 Z " fill="#E6792C" transform="translate(341,306)"/>
<path d="M0 0 C17.16 0 34.32 0 52 0 C52 6.27 52 12.54 52 19 C31.86929489 21.8186467 20.66502832 16.75779695 5.02734375 5.03515625 C3.32511184 3.72373929 1.63868389 2.39000828 0 1 C0 0.67 0 0.34 0 0 Z " fill="#E6792C" transform="translate(408,306)"/>
<path d="M0 0 C0.80566406 0.00322266 1.61132812 0.00644531 2.44140625 0.00976562 C3.70404297 0.02233398 3.70404297 0.02233398 4.9921875 0.03515625 C6.26642578 0.04192383 6.26642578 0.04192383 7.56640625 0.04882812 C9.66669659 0.06062751 11.7669508 0.07856319 13.8671875 0.09765625 C13.8671875 4.38765625 13.8671875 8.67765625 13.8671875 13.09765625 C10.8671875 12.09765625 10.8671875 12.09765625 9.3671875 9.16015625 C8.8721875 8.14953125 8.3771875 7.13890625 7.8671875 6.09765625 C4.19371979 3.64867778 2.20362351 3.78227909 -2.1328125 4.09765625 C-4.4135335 5.97190341 -4.4135335 5.97190341 -4.5078125 8.97265625 C-4.03990419 12.87189218 -3.10881435 13.62178117 -0.1328125 16.09765625 C2.71828044 17.42149566 2.71828044 17.42149566 5.8046875 18.47265625 C11.15889013 20.63656476 14.13928464 21.93412584 16.8671875 27.09765625 C17.82518737 32.97019543 17.3934656 38.1608669 13.8671875 43.09765625 C9.53975354 47.1084487 5.94579203 47.64626378 0.26953125 47.44140625 C-2.91396544 46.98588152 -5.34886187 45.65938465 -8.1328125 44.09765625 C-9.6178125 44.59265625 -9.6178125 44.59265625 -11.1328125 45.09765625 C-11.1328125 40.47765625 -11.1328125 35.85765625 -11.1328125 31.09765625 C-9.8128125 31.09765625 -8.4928125 31.09765625 -7.1328125 31.09765625 C-6.86017578 32.03738281 -6.86017578 32.03738281 -6.58203125 32.99609375 C-6.33066406 33.81335938 -6.07929688 34.630625 -5.8203125 35.47265625 C-5.45486328 36.69082031 -5.45486328 36.69082031 -5.08203125 37.93359375 C-4.21913065 40.42950254 -4.21913065 40.42950254 -1.1328125 42.09765625 C2.39680421 42.64560078 5.71822436 42.74394802 8.8671875 40.97265625 C10.3712935 38.1524575 10.31631599 36.24155569 9.8671875 33.09765625 C6.42601656 28.80890626 1.81355232 26.9798338 -3.08789062 24.83007812 C-7.20176287 22.91144187 -9.34735357 21.30396874 -11.1328125 17.09765625 C-11.90942288 13.01398001 -12.09793726 8.87777525 -10.078125 5.15234375 C-6.93274428 1.29971767 -4.83555224 -0.03405318 0 0 Z " fill="#2A3551" transform="translate(476.1328125,411.90234375)"/>
<path d="M0 0 C5.01396996 0.34871596 8.65438567 3.02949253 12.75 5.6875 C13.45576172 6.13794678 14.16152344 6.58839355 14.88867188 7.05249023 C16.93126069 8.36005656 18.96641844 9.67848293 21 11 C22.00546875 11.64710938 23.0109375 12.29421875 24.046875 12.9609375 C28.47396848 15.85123738 28.47396848 15.85123738 30 17 C30 17.33 30 17.66 30 18 C11.19 18 -7.62 18 -27 18 C-24.27350641 15.27350641 -21.98386358 13.64187474 -18.7109375 11.6796875 C-17.68742187 11.06222656 -16.66390625 10.44476563 -15.609375 9.80859375 C-14.54203125 9.17050781 -13.4746875 8.53242188 -12.375 7.875 C-10.25710508 6.60273938 -8.13987987 5.32936302 -6.0234375 4.0546875 C-4.61457275 3.21139893 -4.61457275 3.21139893 -3.17724609 2.35107422 C-1.10170434 1.17770025 -1.10170434 1.17770025 0 0 Z " fill="#E77C32" transform="translate(399,307)"/>
<path d="M0 0 C6.93 0 13.86 0 21 0 C21 0.99 21 1.98 21 3 C19.35 3.33 17.7 3.66 16 4 C15.9753174 8.94791294 15.95714834 13.8957902 15.94506836 18.84375 C15.94003347 20.52767562 15.93320519 22.21159686 15.92456055 23.89550781 C15.91245804 26.31316203 15.90676332 28.73075856 15.90234375 31.1484375 C15.89718246 31.9036972 15.89202118 32.65895691 15.88670349 33.43710327 C15.80679812 37.34648109 15.80679812 37.34648109 17 41 C20.33054374 41.13478487 20.33054374 41.13478487 24 40 C25.59416574 37.99989285 26.71828312 36.00104543 27.859375 33.71484375 C28.23578125 33.14894531 28.6121875 32.58304687 29 32 C29.99 32 30.98 32 32 32 C31.67 34.97 31.34 37.94 31 41 C32.32 41.33 33.64 41.66 35 42 C35 42.99 35 43.98 35 45 C23.45 45 11.9 45 0 45 C0 44.01 0 43.02 0 42 C2.97 41.505 2.97 41.505 6 41 C6 28.79 6 16.58 6 4 C3.03 3.505 3.03 3.505 0 3 C0 2.01 0 1.02 0 0 Z " fill="#28324F" transform="translate(518,472)"/>
<path d="M0 0 C3.63 0 7.26 0 11 0 C11 16.17 11 32.34 11 49 C7.37 49 3.74 49 0 49 C0 32.83 0 16.66 0 0 Z " fill="#E6772A" transform="translate(409,328)"/>
<path d="M0 0 C3.63 0 7.26 0 11 0 C11 16.17 11 32.34 11 49 C7.37 49 3.74 49 0 49 C0 32.83 0 16.66 0 0 Z " fill="#E6782B" transform="translate(395,328)"/>
<path d="M0 0 C3.63 0 7.26 0 11 0 C11 16.17 11 32.34 11 49 C7.37 49 3.74 49 0 49 C0 32.83 0 16.66 0 0 Z " fill="#E6772A" transform="translate(381,328)"/>
<path d="M0 0 C3.3 0 6.6 0 10 0 C10 16.17 10 32.34 10 49 C6.7 49 3.4 49 0 49 C0 32.83 0 16.66 0 0 Z " fill="#E57526" transform="translate(423,328)"/>
<path d="M0 0 C3.3 0 6.6 0 10 0 C10 16.17 10 32.34 10 49 C6.7 49 3.4 49 0 49 C0 32.83 0 16.66 0 0 Z " fill="#E6782B" transform="translate(368,328)"/>
<path d="M0 0 C7.26 0 14.52 0 22 0 C22 0.99 22 1.98 22 3 C20.02 3 18.04 3 16 3 C16.495 21.315 16.495 21.315 17 40 C18.65 40.33 20.3 40.66 22 41 C22 42.32 22 43.64 22 45 C14.74 45 7.48 45 0 45 C0.33 43.68 0.66 42.36 1 41 C3.97 40.505 3.97 40.505 7 40 C7.33 28.12 7.66 16.24 8 4 C5.36 3.67 2.72 3.34 0 3 C0 2.01 0 1.02 0 0 Z " fill="#2E3854" transform="translate(307,413)"/>
<path d="M0 0 C6.93 0 13.86 0 21 0 C21 0.99 21 1.98 21 3 C19.35 3.33 17.7 3.66 16 4 C16 15.55 16 27.1 16 39 C17.98 39.66 19.96 40.32 22 41 C22 42.32 22 43.64 22 45 C14.74 45 7.48 45 0 45 C0 43.68 0 42.36 0 41 C2.31 41 4.62 41 7 41 C6.67 28.79 6.34 16.58 6 4 C3.03 3.505 3.03 3.505 0 3 C0 2.01 0 1.02 0 0 Z " fill="#2C3653" transform="translate(495,413)"/>
<path d="M0 0 C7.26 0 14.52 0 22 0 C22 0.99 22 1.98 22 3 C20.35 3.33 18.7 3.66 17 4 C17 15.88 17 27.76 17 40 C18.65 40.66 20.3 41.32 22 42 C22 42.99 22 43.98 22 45 C14.74 45 7.48 45 0 45 C0 44.01 0 43.02 0 42 C2.64 41.67 5.28 41.34 8 41 C7.67 29.12 7.34 17.24 7 5 C4.69 4.34 2.38 3.68 0 3 C0 2.01 0 1.02 0 0 Z " fill="#2B3652" transform="translate(440,472)"/>
<path d="M0 0 C7.26 0 14.52 0 22 0 C22 0.99 22 1.98 22 3 C20.35 3.33 18.7 3.66 17 4 C17 15.88 17 27.76 17 40 C18.65 40.66 20.3 41.32 22 42 C22 42.99 22 43.98 22 45 C14.74 45 7.48 45 0 45 C0 44.01 0 43.02 0 42 C2.64 41.67 5.28 41.34 8 41 C7.67 29.12 7.34 17.24 7 5 C4.69 4.34 2.38 3.68 0 3 C0 2.01 0 1.02 0 0 Z " fill="#2B3552" transform="translate(331,472)"/>
<path d="M0 0 C7.59 0 15.18 0 23 0 C23 1.32 23 2.64 23 4 C20.69 4.33 18.38 4.66 16 5 C15.98018066 6.13953125 15.96036133 7.2790625 15.93994141 8.453125 C15.86345511 12.71001028 15.77480639 16.96657277 15.68261719 21.22314453 C15.64450427 23.05999342 15.60962161 24.89691246 15.578125 26.73388672 C15.53208774 29.38534494 15.47416016 32.03632756 15.4140625 34.6875 C15.39673569 35.90518066 15.39673569 35.90518066 15.37905884 37.14746094 C15.1560552 45.90394248 13.53449809 54.01236113 7.5625 60.75 C5.3856874 62.66134765 3.65756133 63.91728983 1 65 C0.34 64.34 -0.32 63.68 -1 63 C-0.236875 62.2575 0.52625 61.515 1.3125 60.75 C6.17165417 55.77784225 8.12218659 52.49657409 8.12939453 45.52270508 C8.13254669 44.64532181 8.13569885 43.76793854 8.13894653 42.8639679 C8.1369223 41.9253038 8.13489807 40.98663971 8.1328125 40.01953125 C8.13376923 39.05093674 8.13472595 38.08234222 8.13571167 37.08439636 C8.13639132 35.04104548 8.13455202 32.99769242 8.13037109 30.9543457 C8.12500242 27.8139161 8.13033228 24.67362839 8.13671875 21.53320312 C8.13605827 19.54947885 8.13477774 17.56575466 8.1328125 15.58203125 C8.13483673 14.63729446 8.13686096 13.69255768 8.13894653 12.7191925 C8.13579437 11.85126572 8.13264221 10.98333893 8.12939453 10.08911133 C8.12859894 9.32174149 8.12780334 8.55437164 8.12698364 7.76374817 C8.19147182 5.97330399 8.19147182 5.97330399 7 5 C4.67182036 4.63239269 2.3381615 4.29758419 0 4 C0 2.68 0 1.36 0 0 Z " fill="#353F5A" transform="translate(234,398)"/>
<path d="M0 0 C2.4375 1.5 2.4375 1.5 4 4 C5.08991274 11.02388213 2.7843205 16.10980417 -1 22 C-3.83803469 25.06209006 -5.56026164 25.86884996 -9.5625 27.0625 C-13 27 -13 27 -15.4375 25.125 C-17.86110813 20.27778373 -17.94972847 15.98257424 -16.3046875 10.81640625 C-13.07731608 3.64296306 -8.45503123 -1.40917187 0 0 Z " fill="#333D59" transform="translate(253,463)"/>
<path d="M0 0 C7.59 0 15.18 0 23 0 C23 4.62 23 9.24 23 14 C15.41 14 7.82 14 0 14 C0 9.38 0 4.76 0 0 Z " fill="#E77D32" transform="translate(437,380)"/>
<path d="M0 0 C3.73797928 3.70109391 7.23466972 7.48562541 10.625 11.5 C11.34042969 12.33337891 11.34042969 12.33337891 12.0703125 13.18359375 C14.71717833 16.30836591 17.00103323 19.40454299 19 23 C17.783125 23.2475 16.56625 23.495 15.3125 23.75 C10.02664753 25.06912425 7.02638572 27.46042142 4 32 C3.01 32 2.02 32 1 32 C-0.46098845 29.0780231 -0.11134901 26.50106525 -0.09765625 23.2421875 C-0.0962413 22.57913605 -0.09482635 21.91608459 -0.09336853 21.23294067 C-0.08776754 19.11358137 -0.075215 16.99432741 -0.0625 14.875 C-0.05748512 13.43880361 -0.05292219 12.00260556 -0.04882812 10.56640625 C-0.03779782 7.04423655 -0.02053259 3.52212855 0 0 Z " fill="#FAFBFB" transform="translate(265,422)"/>
<path d="M0 0 C7.59 0 15.18 0 23 0 C23 3.96 23 7.92 23 12 C15.41 12 7.82 12 0 12 C0 8.04 0 4.08 0 0 Z " fill="#E57424" transform="translate(341,381)"/>
<path d="M0 0 C3.86134614 0.04843983 6.16579789 0.80078068 9.25 3.25 C11.60620437 6.78430656 11.73991613 8.08571287 11.25 12.25 C9.63092222 15.25685874 8.19422632 17.5081079 5.5 19.625 C2.08603806 20.57332276 -1.21157685 20.285814 -4.75 20.25 C-4.77888514 17.10418577 -4.79675923 13.95840531 -4.8125 10.8125 C-4.82087891 9.91466797 -4.82925781 9.01683594 -4.83789062 8.09179688 C-4.84111328 7.23779297 -4.84433594 6.38378906 -4.84765625 5.50390625 C-4.85551147 4.31776733 -4.85551147 4.31776733 -4.86352539 3.10766602 C-4.65068849 -0.37507805 -3.6290934 0.24193956 0 0 Z " fill="#F4F4F6" transform="translate(373.75,474.75)"/>
<path d="M0 0 C4.09892674 0.26878208 6.35719312 1.0803887 9.8125 3.25 C12.15159307 6.7586396 12.22541057 8.12089433 11.8125 12.25 C10.31395698 16.04043235 9.11084502 17.08675461 5.5 19.0625 C1.95542469 20.20397341 -0.51627535 20.34838261 -4.1875 20.25 C-4.21638514 17.10418577 -4.23425923 13.95840531 -4.25 10.8125 C-4.25837891 9.91466797 -4.26675781 9.01683594 -4.27539062 8.09179688 C-4.27861328 7.23779297 -4.28183594 6.38378906 -4.28515625 5.50390625 C-4.29301147 4.31776733 -4.29301147 4.31776733 -4.30102539 3.10766602 C-4.1030671 -0.13161271 -3.31261058 0.25981259 0 0 Z " fill="#F4F5F6" transform="translate(435.1875,415.75)"/>
<path d="M0 0 C1.0828125 0.37125 1.0828125 0.37125 2.1875 0.75 C2.15391294 8.00480437 0.23607034 12.52407941 -4.8125 17.75 C-6.87109375 19.49609375 -6.87109375 19.49609375 -8.8125 20.75 C-11.0625 20.4375 -11.0625 20.4375 -12.8125 19.75 C-13.50640017 13.22733836 -11.55307558 9.06879104 -7.8125 3.75 C-3.91006098 -0.34756098 -3.91006098 -0.34756098 0 0 Z " fill="#F7F8F8" transform="translate(251.8125,466.25)"/>
<path d="M0 0 C2 1 2 1 3.0703125 3.8359375 C3.59238281 5.58777344 3.59238281 5.58777344 4.125 7.375 C4.47820313 8.53773438 4.83140625 9.70046875 5.1953125 10.8984375 C6 14 6 14 6 17 C2.04 17 -1.92 17 -6 17 C-5.45388522 11.81190963 -3.84540159 3.84540159 0 0 Z " fill="#F2F3F4" transform="translate(561,479)"/>
<path d="M0 0 C20.46 0 40.92 0 62 0 C62 4.29 62 8.58 62 13 C61.67 13 61.34 13 61 13 C61 9.04 61 5.08 61 1 C60.01 1 59.02 1 58 1 C58.495 3.475 58.495 3.475 59 6 C57.68 6.33 56.36 6.66 55 7 C54.505 4.525 54.505 4.525 54 2 C46.79175566 1.97468374 39.58352275 1.95714738 32.37524414 1.94506836 C29.92211478 1.9400338 27.46898843 1.93320576 25.01586914 1.92456055 C21.4936448 1.91245668 17.97146006 1.90676297 14.44921875 1.90234375 C13.34913986 1.89718246 12.24906097 1.89202118 11.11564636 1.88670349 C10.09481461 1.88662796 9.07398285 1.88655243 8.0222168 1.88647461 C7.12286911 1.884254 6.22352142 1.88203339 5.29692078 1.87974548 C2.83734702 1.90633144 2.83734702 1.90633144 0 3 C0 2.01 0 1.02 0 0 Z " fill="#F0B084" transform="translate(372,380)"/>
<path d="M0 0 C0.495 0.99 0.495 0.99 1 2 C1.66 2.33 2.32 2.66 3 3 C2.67 3.66 2.34 4.32 2 5 C12.23 5 22.46 5 33 5 C33 5.33 33 5.66 33 6 C11.55 6 -9.9 6 -32 6 C-32 5.67 -32 5.34 -32 5 C-21.77 5 -11.54 5 -1 5 C-1.33 4.01 -1.66 3.02 -2 2 C-1.34 2 -0.68 2 0 2 C0 1.34 0 0.68 0 0 Z " fill="#F3C5A4" transform="translate(400,388)"/>
<path d="M0 0 C0.66 0.33 1.32 0.66 2 1 C1.04578192 2.14926266 0.08647955 3.29430541 -0.875 4.4375 C-1.40867188 5.07558594 -1.94234375 5.71367187 -2.4921875 6.37109375 C-4.68813591 8.74340071 -5.73138335 8.98321146 -9 9.1875 C-12 9 -12 9 -14 7 C-13.625 4.875 -13.625 4.875 -13 3 C-11.35 3.33 -9.7 3.66 -8 4 C-8 4.66 -8 5.32 -8 6 C-4.942048 4.26440562 -2.36620011 2.61527381 0 0 Z " fill="#333D59" transform="translate(255,498)"/>
<path d="M0 0 C2 3 2 3 1.625 5.1875 C1.41875 5.785625 1.2125 6.38375 1 7 C-0.32 6.67 -1.64 6.34 -3 6 C-3 5.01 -3 4.02 -3 3 C-7.96911366 4.12697043 -7.96911366 4.12697043 -12 7 C-12.99 7.33 -13.98 7.66 -15 8 C-12.5888371 1.24874387 -6.72759935 -0.90563837 0 0 Z " fill="#343F5A" transform="translate(285,445)"/>
<path d="M0 0 C0.33 0 0.66 0 1 0 C1 3.3 1 6.6 1 10 C2.32 9.67 3.64 9.34 5 9 C5.99 9.66 6.98 10.32 8 11 C6.625 12.5 6.625 12.5 5 14 C4.34 14 3.68 14 3 14 C2.67 13.34 2.34 12.68 2 12 C1.67 21.24 1.34 30.48 1 40 C0.67 40 0.34 40 0 40 C0 26.8 0 13.6 0 0 Z " fill="#F8DDCA" transform="translate(340,337)"/>
<path d="M0 0 C1.65 0 3.3 0 5 0 C5 4.29 5 8.58 5 13 C4.67 13 4.34 13 4 13 C4 9.04 4 5.08 4 1 C3.01 1 2.02 1 1 1 C1.33 2.65 1.66 4.3 2 6 C0.68 6.33 -0.64 6.66 -2 7 C-2.33 5.35 -2.66 3.7 -3 2 C-2.01 2 -1.02 2 0 2 C0 1.34 0 0.68 0 0 Z " fill="#F6CFB3" transform="translate(429,380)"/>
<path d="M0 0 C1.65 0 3.3 0 5 0 C5.33 1.32 5.66 2.64 6 4 C0.39 4 -5.22 4 -11 4 C-11 3.67 -11 3.34 -11 3 C-5.555 2.505 -5.555 2.505 0 2 C0 1.34 0 0.68 0 0 Z " fill="#444C65" transform="translate(547,454)"/>
<path d="M0 0 C6.6 0 13.2 0 20 0 C20 1.32 20 2.64 20 4 C18.35 4 16.7 4 15 4 C15.33 3.34 15.66 2.68 16 2 C10.72 1.67 5.44 1.34 0 1 C0 0.67 0 0.34 0 0 Z " fill="#454E67" transform="translate(237,398)"/>
<path d="M0 0 C0.99 1.485 0.99 1.485 2 3 C4.05925139 3.72382467 4.05925139 3.72382467 6 4 C5.67 5.32 5.34 6.64 5 8 C3.35 8 1.7 8 0 8 C0 5.36 0 2.72 0 0 Z " fill="#F9DDCA" transform="translate(340,328)"/>
<path d="M0 0 C-0.75 1.9375 -0.75 1.9375 -2 4 C-4.125 4.75 -4.125 4.75 -6 5 C-6.33 3.35 -6.66 1.7 -7 0 C-4.3333581 -1.33332095 -2.83319697 -0.67102033 0 0 Z " fill="#F5CDB1" transform="translate(446,372)"/>
<path d="M0 0 C1.11375 0.3403125 1.11375 0.3403125 2.25 0.6875 C2.25 1.0175 2.25 1.3475 2.25 1.6875 C1.30125 1.97625 0.3525 2.265 -0.625 2.5625 C-3.80211578 3.45575109 -3.80211578 3.45575109 -5.75 5.6875 C-6.74 6.0175 -7.73 6.3475 -8.75 6.6875 C-6.97710463 2.40300285 -4.94524284 -0.56195941 0 0 Z " fill="#464F68" transform="translate(278.75,446.3125)"/>
<path d="M0 0 C0.66 0 1.32 0 2 0 C2 0.66 2 1.32 2 2 C2.66 2.33 3.32 2.66 4 3 C3.01 4.485 3.01 4.485 2 6 C1.01 6 0.02 6 -1 6 C-1.33 4.68 -1.66 3.36 -2 2 C-1.34 2 -0.68 2 0 2 C0 1.34 0 0.68 0 0 Z " fill="#F8E0CE" transform="translate(414,386)"/>
<path d="M0 0 C0.33 0.66 0.66 1.32 1 2 C1.99 2.33 2.98 2.66 4 3 C3.67 3.99 3.34 4.98 3 6 C1.68 6 0.36 6 -1 6 C-1.66 4.68 -2.32 3.36 -3 2 C-2.01 2 -1.02 2 0 2 C0 1.34 0 0.68 0 0 Z " fill="#F8DCC8" transform="translate(450,359)"/>
<path d="M0 0 C0.33 0.66 0.66 1.32 1 2 C1.66 2 2.32 2 3 2 C2.34 3.32 1.68 4.64 1 6 C0.01 5.67 -0.98 5.34 -2 5 C-2.33 4.01 -2.66 3.02 -3 2 C-2.01 2 -1.02 2 0 2 C0 1.34 0 0.68 0 0 Z " fill="#F8DECC" transform="translate(350,359)"/>
<path d="M0 0 C0.598125 0.350625 1.19625 0.70125 1.8125 1.0625 C0.4375 2.5625 0.4375 2.5625 -1.1875 4.0625 C-1.8475 4.0625 -2.5075 4.0625 -3.1875 4.0625 C-3.8475 2.7425 -4.5075 1.4225 -5.1875 0.0625 C-2.1875 -0.9375 -2.1875 -0.9375 0 0 Z " fill="#F9DECC" transform="translate(458.1875,346.9375)"/>
</svg>
